# xmcd CD database file
#
# Track frame offsets:
#	150
#	31709
#	56278
#	80504
#	103225
#	115675
#	143663
#	180723
#	222834
#	249610
#
# Disc length: 3441 seconds
#
# Revision: 0
# Processed by: cddbd v1.5.2PL0 Copyright (c) Steve Scherf et al.
# Submitted via: CDex 1.51
#
DISCID=800d6f0a
DTITLE=Times 4 - Relations
DYEAR=2006
DGENRE=Jazz
TTITLE0=M.O.
TTITLE1=Mojito
TTITLE2=Thickness
TTITLE3=Cell Phone
TTITLE4=Enterlude
TTITLE5=Full Moon
TTITLE6=Relations
TTITLE7=Central Park
TTITLE8=Hericane
TTITLE9=Times 4 - Exitlude
EXTD=YEAR: 2006
EXTT0=
EXTT1=
EXTT2=
EXTT3=
EXTT4=
EXTT5=
EXTT6=
EXTT7=
EXTT8=
EXTT9=
PLAYORDER=
